<svg xmlns="http://www.w3.org/2000/svg" xmlns:xlink="http://www.w3.org/1999/xlink" viewBox="0,0,256,256" width="48px" height="48px" fill-rule="nonzero"><g fill="#6ee7b7" fill-rule="nonzero" stroke="none" stroke-width="1" stroke-linecap="butt" stroke-linejoin="miter" stroke-miterlimit="10" stroke-dasharray="" stroke-dashoffset="0" font-family="none" font-weight="none" font-size="none" text-anchor="none" style="mix-blend-mode: normal"><g transform="scale(5.33333,5.33333)"><path d="M43,10.077c-0.506,-0.001 -1.216,-0.054 -1.717,0.024c-0.746,0.132 -1.506,-0.086 -2.258,-0.109c-0.011,-0.184 0.129,-0.513 0.122,-0.696c-0.141,-0.018 -0.281,-0.028 -0.417,-0.06c-0.127,-0.457 -0.078,-0.939 -0.093,-1.408c-0.072,-0.001 -0.217,-0.004 -0.289,-0.006c-0.023,0.534 -0.021,1.068 -0.027,1.602c-0.185,-0.151 -0.314,-0.444 -0.583,-0.423l-7.346,-0.001c-0.388,0.042 -0.691,-0.223 -1.004,-0.41c-0.03,-0.246 -0.069,-0.49 -0.117,-0.732c-0.22,0.303 -0.24,0.691 -0.321,1.048c-0.584,0.116 -1.161,0.443 -1.756,0.495c-0.052,-0.344 -0.107,-0.687 -0.145,-1.034c0.315,-0.152 0.669,-0.254 0.93,-0.502c0.307,-0.898 -0.048,-1.832 -0.251,-2.71c-0.629,-0.458 -1.326,-0.863 -2.051,-1.155h-1.042v0c-0.716,0.234 -1.429,0.617 -1.836,1.291c-0.63,0.989 -0.717,2.259 -0.321,3.357c-0.056,0.038 -0.168,0.116 -0.224,0.156c-0.682,-0.54 -1.625,-0.273 -2.278,0.18c-0.948,0.719 -1.454,1.895 -1.664,3.055c-0.217,0.983 -0.12,1.992 -0.004,2.98c-0.392,0.097 -0.794,0.116 -1.193,0.146c-0.167,0.007 -0.378,0.074 -0.396,0.273c-0.12,0.782 -0.031,1.586 -0.192,2.363c-0.104,0.498 -0.171,1.004 -0.154,1.514c0.437,0.099 0.877,0.194 1.316,0.287c-0.3,0.138 -0.645,0.236 -0.859,0.509c-0.188,1.261 0.26,2.504 0.22,3.769c-0.22,0.192 -0.495,0.365 -0.567,0.673c-0.135,0.363 0.08,0.732 0.027,1.103c-0.051,0.404 0.04,0.806 0.169,1.184c0.121,0.317 0.02,0.657 -0.028,0.98c-0.142,0.836 -0.305,1.674 -0.34,2.523c-0.028,0.448 0.127,0.91 -0.016,1.345c-0.466,1.068 -1.249,1.959 -1.663,3.054c-0.183,0.504 -0.09,1.08 -0.353,1.558c-0.281,0.538 -0.669,1.069 -0.634,1.714c-0.031,0.437 0.317,0.829 0.17,1.266c-0.218,0.891 -0.437,1.783 -0.679,2.669c-0.164,0.589 -0.195,1.234 -0.012,1.822c0.245,0.129 0.521,0.172 0.789,0.23h1.031c0.333,-0.031 0.663,-0.087 0.996,-0.134c0.096,-0.462 -0.017,-0.913 -0.173,-1.343c-0.194,-1.084 -0.021,-2.236 0.52,-3.192c0.187,-0.248 0.527,-0.344 0.66,-0.64c0.199,-0.423 0.294,-0.886 0.476,-1.316c0.256,-0.612 0.606,-1.187 0.766,-1.838c0.089,-0.356 -0.013,-0.721 0.019,-1.081c0.097,-0.399 0.276,-0.79 0.57,-1.078c0.394,-0.369 0.548,-0.934 0.979,-1.269c0.294,-0.22 0.308,-0.614 0.37,-0.951c0.058,-0.446 0.203,-0.873 0.364,-1.29c0.229,-0.577 0.387,-1.21 0.828,-1.665c0.28,-0.293 0.42,-0.683 0.522,-1.071c0.175,0.339 0.315,0.715 0.596,0.981c0.315,0.158 0.774,0.073 0.965,0.434c0.549,0.836 0.59,1.312 1.141,2.148c0.263,0.519 0.897,0.392 1.366,0.406c0.27,0.371 0.571,0.478 0.481,0.928c-0.017,0.507 -0.445,0.898 -0.385,1.417c0.047,1.056 0.125,2.121 0.399,3.144c0.096,0.477 0.344,0.915 0.352,1.411c0.012,0.574 -0.097,1.514 -0.212,2.081c-0.28,0.759 -0.471,1.553 -0.507,2.366c0.662,0.39 1.426,-0.006 2.118,0.225c0.759,0.251 1.555,0.341 2.35,0.326c0.489,-0.009 0.979,-0.057 1.46,-0.132c0.003,-0.277 0.093,-0.578 -0.033,-0.837c-0.4,-0.473 -1.069,-0.475 -1.555,-0.802c-0.393,-0.354 -0.714,-0.786 -1.042,-1.201c-0.277,-0.326 0.094,-0.777 0.083,-1.188c0.004,-0.624 0.001,-1.267 0.231,-1.855c0.17,-0.468 0.113,-0.974 0.021,-1.451c-0.124,-0.587 0.086,-1.166 0.14,-1.747c0.078,-0.792 0.134,-1.586 0.184,-2.38c0.036,-0.453 -0.119,-0.885 -0.229,-1.316c-0.065,-0.406 -0.451,-0.635 -0.564,-1.02c-0.662,-1.826 -1.268,-3.329 -2.572,-4.785c-0.501,-0.499 -0.754,-1.333 -0.45,-2.004c0.282,0.077 0.562,0.162 0.848,0.234c0.305,-0.411 0.603,-0.865 0.652,-1.393c0.05,-0.544 0.065,-1.091 0.113,-1.635c0.022,-0.593 0.15,-1.204 -0.003,-1.786c-0.1,-0.398 -0.493,-0.57 -0.797,-0.772c0.073,-0.277 0.147,-0.552 0.212,-0.831c1.003,0.489 1.933,1.198 3.056,1.372c0.301,0.046 0.623,0.19 0.922,0.052c0.412,-0.198 0.73,-0.544 1.09,-0.822c0.652,-0.513 0.562,-1.449 0.789,-2.181c0.222,-0.086 0.448,-0.165 0.673,-0.249c-0.148,-0.649 -0.406,-1.305 -0.318,-1.982c0.27,-0.369 0.611,-0.59 0.892,-0.951c0.201,-0.274 0.549,-0.345 0.866,-0.337c0.955,-0.005 1.911,0.012 2.867,0.001c0.031,-0.139 -0.082,0.139 -0.048,0c0.994,0.057 1.989,-0.159 2.985,-0.035c0.621,0.107 1.455,0.063 2.079,0.017c-0.033,-0.184 -0.049,-0.724 -0.057,-0.907zM30.703,13.574c-0.189,-0.338 -1.019,-0.774 -1.075,-1.164c0.03,-0.041 0.092,-0.12 0.122,-0.16v0c0.406,-0.043 1.362,0.102 1.769,0.122c-0.263,0.406 -0.541,0.804 -0.816,1.202z"></path><path d="M43,23h-7v-2h9c-0.13,-0.79 -0.66,-1.5 -1.4,-1.81c-0.49,-0.22 -1.04,-0.19 -1.57,-0.19h-6.03c-1,0 -2,1 -2,2v2c0.06,1 1,2 2,2h7v2h-9c0.13,0.64 0.47,1.24 1.02,1.59c0.48,0.35 1.08,0.43 1.66,0.41h6.32c1,0 2,-1 2,-2v-2c0,-1 -0.88,-1.98 -2,-2zM5,21h8c0,-1.1 -0.9,-2 -2,-2h-6c-1.11,0 -2,0.9 -2,2v6c0,1.1 0.89,2 2,2h6c1.1,0 2,-0.9 2,-2h-8z"></path><path d="M36,23v2c-1,0 -1.94,-1 -2,-2z"></path><path d="M36,19v2h-2c0,-1 1,-2 2,-2z"></path><path d="M5,27v2c-1,0 -1.94,-1 -2,-2z"></path><path d="M5,19v2h-2c0,-1 1,-2 2,-2z"></path><path d="M45,25h-2v-2c1.12,0.02 2,1 2,2z"></path><path d="M45,27c0,1 -1,2 -2,2v-2z"></path></g></g></svg>